<?xml version="1.0" standalone="no"?>
<!DOCTYPE svg PUBLIC "-//W3C//DTD SVG 20010904//EN"
 "http://www.w3.org/TR/2001/REC-SVG-20010904/DTD/svg10.dtd">
<svg version="1.0" xmlns="http://www.w3.org/2000/svg"
 width="512.000000pt" height="512.000000pt" viewBox="0 0 512.000000 512.000000"
 preserveAspectRatio="xMidYMid meet">

<g transform="translate(0.000000,500.000000) scale(0.100000,-0.100000)"
fill="coral" stroke="none">
<path d="M2162 4754 c-176 -28 -551 -152 -535 -177 3 -6 1 -7 -5 -3 -13 8
-173 -71 -302 -149 -93 -57 -241 -153 -250 -164 -3 -3 -27 -22 -55 -40 -112
-78 -285 -222 -279 -233 4 -6 3 -8 -3 -5 -15 9 -65 -33 -59 -49 3 -7 0 -16 -6
-20 -7 -4 -8 -3 -4 4 18 29 -25 8 -57 -27 -19 -22 -37 -38 -39 -35 -2 2 -33
-26 -68 -61 l-64 -65 33 -30 c18 -17 37 -27 43 -24 7 5 8 2 3 -6 -4 -7 -3 -15
2 -19 5 -3 19 -21 32 -39 18 -25 26 -30 36 -22 10 8 15 8 21 -1 4 -8 3 -9 -4
-5 -29 18 -7 -22 37 -68 28 -28 68 -71 90 -96 l40 -45 46 47 c25 27 45 45 45
42 0 -4 7 -1 15 6 8 7 12 16 9 21 -3 5 -1 8 4 7 5 -2 35 20 68 49 32 28 96 82
142 118 45 37 82 72 82 78 0 6 3 8 6 4 3 -3 49 27 102 66 128 96 242 170 242
157 0 -5 -18 -58 -41 -117 -184 -483 -309 -1030 -365 -1598 -28 -278 -24 -946
7 -1185 5 -41 11 -95 14 -120 12 -122 18 -160 24 -156 3 2 5 -14 3 -36 -3 -27
-1 -38 6 -34 7 4 9 -2 6 -16 -5 -26 27 -229 35 -223 3 2 7 -12 8 -31 2 -48 5
-64 12 -64 3 0 6 -18 6 -40 1 -46 8 -55 32 -45 10 4 29 7 42 6 16 -2 21 1 16
10 -5 8 -4 10 3 5 15 -9 83 3 77 14 -2 4 7 6 22 4 14 -1 82 11 152 27 69 16
129 29 134 29 13 0 7 35 -10 59 -9 14 -11 21 -5 17 7 -4 12 -2 12 3 0 6 -4 11
-9 11 -4 0 -6 12 -3 26 4 21 2 25 -8 19 -10 -6 -12 -4 -8 7 4 8 -3 67 -13 129
-11 63 -22 132 -24 154 -3 22 -9 62 -14 88 -5 26 -5 50 0 53 5 2 43 -7 86 -21
105 -36 242 -68 260 -61 8 3 11 1 8 -4 -4 -6 8 -11 27 -12 56 -3 72 -5 88 -11
12 -5 131 -19 220 -27 270 -23 404 -29 651 -29 141 0 259 2 261 4 2 3 78 7
169 9 90 3 193 7 229 10 36 2 81 5 100 5 34 0 328 20 362 25 10 1 20 5 24 8 3
4 17 4 30 2 14 -3 71 1 127 7 108 12 143 15 193 18 22 1 31 6 32 19 0 9 -9
120 -20 245 l-22 228 -55 -6 c-73 -8 -352 -35 -371 -36 -8 0 -105 -7 -215 -14
-1213 -86 -2072 7 -2191 238 -23 43 -11 101 41 205 199 393 937 1015 2097
1763 98 63 177 117 178 121 0 14 -276 437 -326 499 -83 102 -269 276 -374 352
-156 111 -337 192 -535 240 -110 26 -420 33 -553 11z m406 -489 c139 -27 255
-75 382 -158 79 -53 320 -285 320 -309 0 -8 -17 -24 -37 -35 -21 -12 -137 -90
-257 -173 -520 -360 -898 -656 -1206 -943 -69 -65 -106 -93 -108 -83 -7 35 76
433 134 641 89 317 255 760 372 992 29 56 35 63 69 68 21 4 45 8 53 10 44 9
208 3 278 -10z"/>
</g>
</svg>
